# xmcd
#
# Track frame offsets:
#	150
#	17176
#	39060
#	55541
#	71586
#	76110
#	90864
#	122300
#	146699
#	163931
#	183044
#	192245
#
# Disc length: 2855 seconds
#
# Revision: 1
# Processed by: cddbd v1.5.2PL0 Copyright (c) Steve Scherf et al.
# Submitted via: audiograbber 1.83.01
#
DISCID=860b250c
DTITLE=Meredith Brothers Band - The Meredith Brothers Band
DYEAR=2008
DGENRE=
TTITLE0=On The Run
TTITLE1=Morning Song
TTITLE2=Road Tonight
TTITLE3=Duke and 52nd
TTITLE4=Welfare
TTITLE5=Portland
TTITLE6=Midnight
TTITLE7=Gasoline
TTITLE8=Honkytonk Song
TTITLE9=Highway of Regret
TTITLE10=Grape Juice Or Wine ?
TTITLE11=Slowlane
EXTD=
EXTT0=
EXTT1=
EXTT2=
EXTT3=
EXTT4=
EXTT5=
EXTT6=
EXTT7=
EXTT8=
EXTT9=
EXTT10=
EXTT11=
PLAYORDER=
